<svg width="20" height="20" viewBox="0 0 20 20" fill="none" xmlns="http://www.w3.org/2000/svg">
<g clip-path="url(#clip0_2007_174)">
<path d="M9.665 3.82044C10.7764 3.82044 11.6771 4.72108 11.6771 5.8325C11.6771 6.94392 10.7764 7.84456 9.665 7.84456C8.55358 7.84456 7.65294 6.94392 7.65294 5.8325C7.65294 4.72108 8.55358 3.82044 9.665 3.82044ZM9.665 12.4436C12.5106 12.4436 15.5096 13.8424 15.5096 14.4556V15.5096H3.82044V14.4556C3.82044 13.8424 6.81937 12.4436 9.665 12.4436ZM9.665 2C7.54754 2 5.8325 3.71504 5.8325 5.8325C5.8325 7.94996 7.54754 9.665 9.665 9.665C11.7825 9.665 13.4975 7.94996 13.4975 5.8325C13.4975 3.71504 11.7825 2 9.665 2ZM9.665 10.6231C7.10681 10.6231 2 11.907 2 14.4556V17.33H17.33V14.4556C17.33 11.907 12.2232 10.6231 9.665 10.6231Z" fill="#599CC2"/>
</g>
<defs>
<clipPath id="clip0_2007_174">
<rect width="20" height="20" fill="white"/>
</clipPath>
</defs>
</svg>
